<svg xmlns="http://www.w3.org/2000/svg" xmlns:xlink="http://www.w3.org/1999/xlink" xmlns:lucid="lucid" width="846" height="847"><g transform="translate(-297 -81)" lucid:page-tab-id="0_0"><path d="M0 0h1870.87v1322.83H0z" fill="#fff"/><path d="M326.53 112.5l-6.25-6.25-6.25-6.25v220h12.5zm0 297.5h-12.5v502.2l6.25-6.25 6.25-6.25z" fill="#fff"/><path d="M326.53 112.5V320h-12.5V100m12.5 310v489.7m-12.5 12.5V410h12.5" stroke="#000" stroke-width="2" fill="none"/><use xlink:href="#a" transform="matrix(6.123233995736766e-17,1,-1,6.123233995736766e-17,356.52575000002986,476.0981306898756) translate(5.024999999999999 14.4)"/><path d="M326.53 899.7l-6.25 6.25-6.25 6.25h812.22l-6.25-6.25-6.25-6.25z" fill="#fff"/><path d="M326.53 899.7h787.22m12.5 12.5H314.03m12.5-12.5" stroke="#000" stroke-width="2" fill="none"/><use xlink:href="#a" transform="matrix(1,1.9902056591417852e-15,-1.9902056591417852e-15,1,690.1378749999557,869.6962613797513) translate(5.024999999999999 14.4)"/><path d="M1113.75 899.7l6.25 6.25 6.25 6.25V575h-12.5zm0-399.7h12.5v-75h-12.5zm0-150h12.5v-75h-12.5zm0-150h12.5V100l-6.25 6.25-6.25 6.25z" fill="#fff"/><path d="M1113.75 899.7V575h12.5v337.2m-12.5-412.2v-75h12.5v75h-12.5zm0-150v-75h12.5v75h-12.5zm0-150v-87.5m12.5-12.5v100h-12.5" stroke="#000" stroke-width="2" fill="none"/><use xlink:href="#b" transform="matrix(1.1714553645825241e-15,-1,1,1.1714553645825241e-15,1083.7499999998815,536.0981306898764) translate(5.024999999999999 14.4)"/><path d="M1113.75 112.5l6.25-6.25 6.25-6.25H314.03l6.25 6.25 6.25 6.25z" fill="#fff"/><path d="M1113.75 112.5H326.53m-12.5-12.5h812.22m-12.5 12.5" stroke="#000" stroke-width="2" fill="none"/><use xlink:href="#a" transform="matrix(1,0,0,1,690.137874999956,126.50000000000087) translate(5.024999999999999 14.4)"/><g fill="none"><path d="M320.28 320l63.64 63.64M320.28 410c24.85 0 46.06-8.8 63.64-26.36" stroke="#000" stroke-width="2"/><path d="M410.28 320v90h-90v-90z"/></g><path d="M340 720h80v20h-80zM340 740h80v20h-80zM340 760h80v20h-80zM340 780h80v20h-80zM340 800h80v20h-80zM340 820h80v20h-80zM340 840h80v20h-80zM340 860h80v20h-80z" stroke="#000" stroke-width="2" fill="#fff"/><g stroke="#000" stroke-width="2"><path d="M1112.5 275v-75h15v75z" fill="#fff"/><path d="M1117.5 275h5v-75h-5z"/></g><g stroke="#000" stroke-width="2"><path d="M1112.5 425v-75h15v75z" fill="#fff"/><path d="M1117.5 425h5v-75h-5z"/></g><g stroke="#000" stroke-width="2"><path d="M1112.5 575v-75h15v75z" fill="#fff"/><path d="M1117.5 575h5v-75h-5z"/></g><path d="M820 821.42h-60v-320h240v106.66" stroke="#000" stroke-width="5" fill="none"/><defs><path fill="#fff" d="M134-131c28 9 52 24 51 62-1 50-34 73-85 73S17-19 16-69c0-36 21-54 49-61-75-25-45-126 34-121 46 3 78 18 79 63 0 33-17 51-44 57zm-34-11c31 1 46-15 46-44 0-28-17-43-47-42-29 0-46 13-45 42 1 28 16 44 46 44zm1 122c35 0 51-18 51-52 0-30-18-46-53-46-33 0-51 17-51 47 0 34 19 51 53 51" id="c"/><path fill="#fff" d="M33 0v-38h34V0H33" id="d"/><path fill="#fff" d="M101-251c68 0 85 55 85 127S166 4 100 4C33 4 14-52 14-124c0-73 17-127 87-127zm-1 229c47 0 54-49 54-102s-4-102-53-102c-51 0-55 48-55 102 0 53 5 102 54 102" id="e"/><path fill="#fff" d="M210-169c-67 3-38 105-44 169h-31v-121c0-29-5-50-35-48C34-165 62-65 56 0H25l-1-190h30c1 10-1 24 2 32 10-44 99-50 107 0 11-21 27-35 58-36 85-2 47 119 55 194h-31v-121c0-29-5-49-35-48" id="f"/><g id="a"><use transform="matrix(0.05,0,0,0.05,0,0)" xlink:href="#c"/><use transform="matrix(0.05,0,0,0.05,10,0)" xlink:href="#d"/><use transform="matrix(0.05,0,0,0.05,15,0)" xlink:href="#e"/><use transform="matrix(0.05,0,0,0.05,25,0)" xlink:href="#e"/><use transform="matrix(0.05,0,0,0.05,35,0)" xlink:href="#f"/></g><path d="M134-131c28 9 52 24 51 62-1 50-34 73-85 73S17-19 16-69c0-36 21-54 49-61-75-25-45-126 34-121 46 3 78 18 79 63 0 33-17 51-44 57zm-34-11c31 1 46-15 46-44 0-28-17-43-47-42-29 0-46 13-45 42 1 28 16 44 46 44zm1 122c35 0 51-18 51-52 0-30-18-46-53-46-33 0-51 17-51 47 0 34 19 51 53 51" id="g"/><path d="M33 0v-38h34V0H33" id="h"/><path d="M101-251c68 0 85 55 85 127S166 4 100 4C33 4 14-52 14-124c0-73 17-127 87-127zm-1 229c47 0 54-49 54-102s-4-102-53-102c-51 0-55 48-55 102 0 53 5 102 54 102" id="i"/><path d="M210-169c-67 3-38 105-44 169h-31v-121c0-29-5-50-35-48C34-165 62-65 56 0H25l-1-190h30c1 10-1 24 2 32 10-44 99-50 107 0 11-21 27-35 58-36 85-2 47 119 55 194h-31v-121c0-29-5-49-35-48" id="j"/><g id="b"><use transform="matrix(0.05,0,0,0.05,0,0)" xlink:href="#g"/><use transform="matrix(0.05,0,0,0.05,10,0)" xlink:href="#h"/><use transform="matrix(0.05,0,0,0.05,15,0)" xlink:href="#i"/><use transform="matrix(0.05,0,0,0.05,25,0)" xlink:href="#i"/><use transform="matrix(0.05,0,0,0.05,35,0)" xlink:href="#j"/></g></defs></g></svg>