<svg xmlns="http://www.w3.org/2000/svg" xmlns:xlink="http://www.w3.org/1999/xlink" xmlns:lucid="lucid" width="813.47" height="812.2"><g transform="translate(0 0)" lucid:page-tab-id="uuEm-O~S1Pkh"><path d="M0 0h813.47v812.2H0z" fill="#fff"/><path d="M12.5 12.5L6.25 6.25 0 0v220h12.5zm0 297.5H0v502.2l6.25-6.25 6.25-6.25z" fill="#fff"/><path d="M12.5 12.5V220H0V0m12.5 310v489.7M0 812.2V310h12.5" stroke="#000" stroke-width="2" fill="none"/><use xlink:href="#a" transform="matrix(6.123233995736766e-17,1,-1,6.123233995736766e-17,-10,376.0981306898751) translate(5.024999999999999 14.4)"/><path d="M12.5 799.7l-6.25 6.25L0 812.2h812.22l-6.25-6.25-6.25-6.25z" fill="#fff"/><path d="M12.5 799.7h787.22m12.5 12.5H0m12.5-12.5" stroke="#000" stroke-width="2" fill="none"/><use xlink:href="#a" transform="matrix(1,1.9902056591417852e-15,-1.9902056591417852e-15,1,376.11212499992575,822.196261379751) translate(5.024999999999999 14.4)"/><path d="M799.72 799.7l6.25 6.25 6.25 6.25V620h-12.5zm0-254.7h12.5v-70h-12.5zm0-145h12.5v-75h-12.5zm0-150h12.5v-75h-12.5zm0-150h12.5V0l-6.25 6.25-6.25 6.25z" fill="#fff"/><path d="M799.72 799.7V620h12.5v192.2M799.72 545v-70h12.5v70h-12.5zm0-145v-75h12.5v75h-12.5zm0-150v-75h12.5v75h-12.5zm0-150V12.5M812.22 0v100h-12.5" stroke="#000" stroke-width="2" fill="none"/><use xlink:href="#a" transform="matrix(1.1714553645825241e-15,-1,1,1.1714553645825241e-15,822.224249999852,436.09813068987614) translate(5.024999999999999 14.4)"/><path d="M799.72 12.5l6.25-6.25L812.22 0H0l6.25 6.25 6.25 6.25z" fill="#fff"/><path d="M799.72 12.5H12.5M0 0h812.22m-12.5 12.5" stroke="#000" stroke-width="2" fill="none"/><use xlink:href="#a" transform="matrix(1,4.440892098500626e-16,-4.440892098500626e-16,1,376.1121249999262,-25.999999999999794) translate(5.024999999999999 14.4)"/><path d="M540 700h-80V420h240v93.33" stroke="#000" stroke-width="5" fill="none"/><g fill="none"><path d="M6.25 220l63.64 63.64M6.24 310c24.85 0 46.07-8.8 63.64-26.36" stroke="#000" stroke-width="2"/><path d="M96.25 220v90h-90v-90z"/></g><path d="M25.97 620h80v20h-80zM25.97 640h80v20h-80zM25.97 660h80v20h-80zM25.97 680h80v20h-80zM25.97 700h80v20h-80zM25.97 720h80v20h-80zM25.97 740h80v20h-80zM25.97 760h80v20h-80z" stroke="#000" stroke-width="2" fill="#fff"/><g stroke="#000" stroke-width="2"><path d="M798.47 175v-75h15v75z" fill="#fff"/><path d="M803.47 175h5v-75h-5z"/></g><g stroke="#000" stroke-width="2"><path d="M798.47 325v-75h15v75z" fill="#fff"/><path d="M803.47 325h5v-75h-5z"/></g><g stroke="#000" stroke-width="2"><path d="M798.47 475v-75h15v75z" fill="#fff"/><path d="M803.47 475h5v-75h-5z"/></g><g stroke="#000" stroke-width="2"><path d="M798.47 620v-75h15v75z" fill="#fff"/><path d="M803.47 620h5v-75h-5z"/></g><defs><path fill-opacity="0" d="M134-131c28 9 52 24 51 62-1 50-34 73-85 73S17-19 16-69c0-36 21-54 49-61-75-25-45-126 34-121 46 3 78 18 79 63 0 33-17 51-44 57zm-34-11c31 1 46-15 46-44 0-28-17-43-47-42-29 0-46 13-45 42 1 28 16 44 46 44zm1 122c35 0 51-18 51-52 0-30-18-46-53-46-33 0-51 17-51 47 0 34 19 51 53 51" id="b"/><path fill-opacity="0" d="M33 0v-38h34V0H33" id="c"/><path fill-opacity="0" d="M101-251c82-7 93 87 43 132L82-64C71-53 59-42 53-27h129V0H18c2-99 128-94 128-182 0-28-16-43-45-43s-46 15-49 41l-32-3c6-41 34-60 81-64" id="d"/><path fill-opacity="0" d="M54-142c48-35 137-8 131 61C196 18 31 33 14-55l32-4c7 23 22 37 52 37 35-1 51-22 54-58 4-55-73-65-99-34H22l8-134h141v27H59" id="e"/><path fill-opacity="0" d="M210-169c-67 3-38 105-44 169h-31v-121c0-29-5-50-35-48C34-165 62-65 56 0H25l-1-190h30c1 10-1 24 2 32 10-44 99-50 107 0 11-21 27-35 58-36 85-2 47 119 55 194h-31v-121c0-29-5-49-35-48" id="f"/><g id="a"><use transform="matrix(0.05,0,0,0.05,0,0)" xlink:href="#b"/><use transform="matrix(0.05,0,0,0.05,10,0)" xlink:href="#c"/><use transform="matrix(0.05,0,0,0.05,15,0)" xlink:href="#d"/><use transform="matrix(0.05,0,0,0.05,25,0)" xlink:href="#e"/><use transform="matrix(0.05,0,0,0.05,35,0)" xlink:href="#f"/></g></defs></g></svg>