<svg xmlns="http://www.w3.org/2000/svg" xmlns:xlink="http://www.w3.org/1999/xlink" xmlns:lucid="lucid" width="813.47" height="812.2"><g transform="translate(0 0)" lucid:page-tab-id="0_0"><path d="M0 0h813.47v812.2H0z" fill="#fff"/><g stroke="#000"><path d="M798.47 600h-150v-60h50l40-40v-50h60z" stroke-width="2" fill="#999"/><path d="M693.47 537.5h-40m40-2.5h-40M735.97 495v-40m-2.5 40v-40M700.97 537.5l12.5-47.5" fill="none"/></g><path d="M12.5 12.5L6.25 6.25 0 0v220h12.5zm0 297.5H0v502.2l6.25-6.25 6.25-6.25z" fill="#fff"/><path d="M12.5 12.5V220H0V0m12.5 310v489.7M0 812.2V310h12.5" stroke="#000" stroke-width="2" fill="none"/><use xlink:href="#a" transform="matrix(6.123233995736766e-17,1,-1,6.123233995736766e-17,42.50000000000006,376.0981306898752) translate(5.024999999999999 14.4)"/><path d="M12.5 799.7l-6.25 6.25L0 812.2h812.22l-6.25-6.25-6.25-6.25z" fill="#fff"/><path d="M12.5 799.7h787.22m12.5 12.5H0m12.5-12.5" stroke="#000" stroke-width="2" fill="none"/><use xlink:href="#a" transform="matrix(1,1.9902056591417852e-15,-1.9902056591417852e-15,1,376.11212499992587,769.696261379751) translate(5.024999999999999 14.4)"/><path d="M799.72 799.7l6.25 6.25 6.25 6.25V615h-12.5zm0-259.7h12.5v-65h-12.5zm0-140h12.5v-75h-12.5zm0-150h12.5v-75h-12.5zm0-150h12.5V0l-6.25 6.25-6.25 6.25z" fill="#fff"/><path d="M799.72 799.7V615h12.5v197.2M799.72 540v-65h12.5v65h-12.5zm0-140v-75h12.5v75h-12.5zm0-150v-75h12.5v75h-12.5zm0-150V12.5M812.22 0v100h-12.5" stroke="#000" stroke-width="2" fill="none"/><use xlink:href="#b" transform="matrix(1.1714553645825241e-15,-1,1,1.1714553645825241e-15,769.724249999852,436.09813068987614) translate(5.024999999999999 14.4)"/><path d="M799.72 12.5l6.25-6.25L812.22 0H0l6.25 6.25 6.25 6.25z" fill="#fff"/><path d="M799.72 12.5H12.5M0 0h812.22m-12.5 12.5" stroke="#000" stroke-width="2" fill="none"/><use xlink:href="#c" transform="matrix(1,4.440892098500626e-16,-4.440892098500626e-16,1,376.1121249999262,-25.999999999999794) translate(5.024999999999999 14.4)"/><g fill="none"><path d="M6.25 220l63.64 63.64M6.24 310c24.85 0 46.07-8.8 63.64-26.36" stroke="#000" stroke-width="2"/><path d="M96.25 220v90h-90v-90z"/></g><path d="M25.97 620h80v20h-80zM25.97 640h80v20h-80zM25.97 660h80v20h-80zM25.97 680h80v20h-80zM25.97 700h80v20h-80zM25.97 720h80v20h-80zM25.97 740h80v20h-80zM25.97 760h80v20h-80z" stroke="#000" stroke-width="2" fill="#fff"/><g stroke="#000" stroke-width="2"><path d="M798.47 175v-75h15v75z" fill="#fff"/><path d="M803.47 175h5v-75h-5z"/></g><g stroke="#000" stroke-width="2"><path d="M798.47 325v-75h15v75z" fill="#fff"/><path d="M803.47 325h5v-75h-5z"/></g><g stroke="#000" stroke-width="2"><path d="M798.47 475v-75h15v75z" fill="#fff"/><path d="M803.47 475h5v-75h-5z"/></g><path d="M528.47 672.83V600h270v200.28h-270v-72.83" stroke="#000" stroke-width="5" fill="none"/><path d="M417.52 792.78h-200.6v-26.42h200.6v26.42z"/><path d="M422 799.26h-67.8c-.64 0-1.28-.6-1.28-1.4v-12.08c0-.78.64-1.4 1.28-1.4H422c.62 0 1.05.62 1.05 1.4v12.08c0 .8-.43 1.4-1.06 1.4zM351.22 799.26h-68c-.63 0-1.06-.6-1.06-1.4v-12.08c0-.78.43-1.4 1.06-1.4h68c.64 0 1.07.62 1.07 1.4v12.08c0 .8-.44 1.4-1.08 1.4zM280.25 799.26h-67.8c-.63 0-1.05-.6-1.05-1.4v-12.08c0-.78.42-1.4 1.06-1.4h67.8c.63 0 1.26.62 1.26 1.4v12.08c0 .8-.63 1.4-1.27 1.4zM221.17 783.5v-40.15c0-3.15-1.06-5.78-2.55-5.78h-4.46c-1.5 0-2.76 2.63-2.76 5.78v40.16h9.77zM276.85 783.5H226.5c-2.56 0-4.48-2.53-4.48-5.6v-59.67c0-3.06 1.92-5.6 4.47-5.6h50.35c2.55 0 4.67 2.54 4.67 5.6v59.68c0 3.07-2.12 5.6-4.67 5.6zM423.05 783.5v-40.15c0-3.15-1.06-5.78-2.55-5.78h-4.46c-1.5 0-2.77 2.63-2.77 5.78v40.16h9.78zM407.96 783.5H357.6c-2.55 0-4.68-2.53-4.68-5.6v-59.67c0-3.06 2.13-5.6 4.68-5.6h50.36c2.55 0 4.46 2.54 4.46 5.6v59.68c0 3.07-1.9 5.6-4.46 5.6zM348.25 783.5H286.2c-2.13 0-4.04-2.27-4.04-4.98v-60.9c0-2.7 1.9-5 4.04-5h62.05c2.12 0 4.04 2.3 4.04 5v60.9c0 2.7-1.93 5-4.05 5z" stroke="#000" stroke-width="2" fill="#bbb"/><g stroke="#000" fill="#999"><path d="M798.47 250v200h-60V250z" stroke-width="2"/><path d="M735.97 255v90m-2.5-90v90M735.97 355v90m-2.5-90v90"/></g><path d="M640 662.5c0-1.38 1.12-2.5 2.5-2.5h3.4c1.4 0 2.5 1.12 2.5 2.5v134.7c0 1.38-1.1 2.5-2.5 2.5h-3.4c-1.38 0-2.5-1.12-2.5-2.5z"/><path d="M713.56 797.6c0 1.16-.94 2.1-2.1 2.1-1.17 0-2.1-.94-2.1-2.1v-58.85c0-1.16.93-2.1 2.1-2.1 1.16 0 2.1.94 2.1 2.1z" stroke="#000" stroke-width="2" fill="#bfbfbf"/><path d="M709.35 736.65c-30.6 0-58.84 28.23-58.84 63.05" stroke="#000" stroke-width="2" fill="none"/><path d="M668.96 667.8c-.33 0-.6 1.22-.6 2.7v17.05c-1.18 2.6-1.85 5.54-1.85 8.7 0 9.97 6.76 18.08 15.1 18.08 8.37 0 15.1-8.1 15.1-18.07 0-3.45-.77-6.66-2.17-9.4V670.5c0-1.48-.27-2.7-.6-2.7h-24.97z" stroke="#000" stroke-width="2" fill="#fff"/><path d="M693.14 696.58c0 7.92-5.23 14.3-11.68 14.3-6.45 0-11.65-6.38-11.65-14.3 0-7.86 5.2-14.24 11.66-14.24 6.45 0 11.68 6.38 11.68 14.24z" stroke="#000" stroke-width="2" fill="#fff"/><path d="M686 673.63c0 2.47-1.97 4.47-4.4 4.47-2.4 0-4.38-2-4.38-4.47 0-2.47 1.97-4.47 4.4-4.47 2.4 0 4.38 2 4.38 4.47z"/><path d="M685 688.72c0 1.53-1.5 2.74-3.4 2.74-1.86 0-3.38-1.2-3.38-2.74 0-1.54 1.5-1.68 3.36-1.68 1.88 0 3.42.14 3.42 1.68zM687.1 678.84h2.77c.46 0 .82.38.82.84V682c0 .48-.37.85-.83.85h-2.78c-.5 0-.86-.37-.86-.84v-2.32c0-.46.37-.84.85-.84zM673.32 678.84h2.78c.5 0 .85.38.85.84V682c0 .48-.36.85-.85.85h-2.78c-.45 0-.82-.37-.82-.84v-2.32c0-.46.37-.84.82-.84z" stroke="#000" stroke-width="2" fill="#fff"/><path d="M675.17 681.13c-8.14 5.68-13.17 20.95 1.78 32 1.67 1.24 2.73-3.97 0-6.53-7.65-7.27-4.8-21.38 4.63-21.38 9.47-.04 12.02 14.1 4.66 21.38-3.4 3.35-1.42 7.6 0 6.52 14.86-11.04 9.9-26.3 1.8-32h-12.87zM647.58 714.36h.77v3.12h-.77v-3.12zM647.58 726.7h.77v3.13h-.77v-3.12zM652.67 716.95h10v10.27h-10v-10.27zM648.4 714.93h9.3v2h-9.3v-2zM648.4 727.26h9.3v1.98h-9.3v-1.98z" stroke="#000" stroke-width="2" fill="#fff"/><path d="M715.66 662.5c0-1.38 1.12-2.5 2.5-2.5h3.4c1.4 0 2.5 1.12 2.5 2.5v134.7c0 1.38-1.1 2.5-2.5 2.5h-3.4c-1.38 0-2.5-1.12-2.5-2.5z"/><path d="M789.22 797.6c0 1.16-.94 2.1-2.1 2.1-1.17 0-2.1-.94-2.1-2.1v-58.85c0-1.16.93-2.1 2.1-2.1 1.16 0 2.1.94 2.1 2.1z" stroke="#000" stroke-width="2" fill="#bfbfbf"/><path d="M785 736.65c-30.6 0-58.83 28.23-58.83 63.05" stroke="#000" stroke-width="2" fill="none"/><path d="M744.62 667.8c-.33 0-.6 1.22-.6 2.7v17.05c-1.18 2.6-1.85 5.54-1.85 8.7 0 9.97 6.75 18.08 15.1 18.08s15.1-8.1 15.1-18.07c0-3.45-.78-6.66-2.18-9.4V670.5c0-1.48-.28-2.7-.6-2.7H744.6z" stroke="#000" stroke-width="2" fill="#fff"/><path d="M768.8 696.58c0 7.92-5.23 14.3-11.68 14.3-6.45 0-11.65-6.38-11.65-14.3 0-7.86 5.2-14.24 11.65-14.24s11.68 6.38 11.68 14.24z" stroke="#000" stroke-width="2" fill="#fff"/><path d="M761.66 673.63c0 2.47-1.97 4.47-4.4 4.47-2.4 0-4.38-2-4.38-4.47 0-2.47 1.97-4.47 4.4-4.47 2.4 0 4.38 2 4.38 4.47z"/><path d="M760.66 688.72c0 1.53-1.5 2.74-3.4 2.74-1.87 0-3.38-1.2-3.38-2.74 0-1.54 1.48-1.68 3.36-1.68s3.42.14 3.42 1.68zM762.75 678.84h2.78c.46 0 .82.38.82.84V682c0 .48-.36.85-.82.85h-2.78c-.5 0-.85-.37-.85-.84v-2.32c0-.46.36-.84.85-.84zM748.98 678.84h2.78c.5 0 .85.38.85.84V682c0 .48-.35.85-.84.85h-2.78c-.45 0-.82-.37-.82-.84v-2.32c0-.46.37-.84.82-.84z" stroke="#000" stroke-width="2" fill="#fff"/><path d="M750.83 681.13c-8.15 5.68-13.17 20.95 1.78 32 1.68 1.24 2.73-3.97 0-6.53-7.65-7.27-4.8-21.38 4.64-21.38 9.47-.04 12.02 14.1 4.66 21.38-3.4 3.35-1.42 7.6 0 6.52 14.86-11.04 9.9-26.3 1.8-32h-12.87zM723.24 714.36h.77v3.12h-.76v-3.12zM723.24 726.7h.77v3.13h-.76v-3.12zM728.32 716.95h10.02v10.27h-10.02v-10.27zM724.06 714.93h9.3v2h-9.3v-2zM724.06 727.26h9.3v1.98h-9.3v-1.98z" stroke="#000" stroke-width="2" fill="#fff"/><path d="M791.32 662.5c0-1.38 1.12-2.5 2.5-2.5h3.4c1.38 0 2.5 1.12 2.5 2.5v134.7c0 1.38-1.12 2.5-2.5 2.5h-3.4c-1.38 0-2.5-1.12-2.5-2.5z"/><g stroke="#000" stroke-width="2"><path d="M798.47 615v-75h15v75z" fill="#fff"/><path d="M803.47 615h5v-75h-5z"/></g><defs><path fill="#fff" d="M134-131c28 9 52 24 51 62-1 50-34 73-85 73S17-19 16-69c0-36 21-54 49-61-75-25-45-126 34-121 46 3 78 18 79 63 0 33-17 51-44 57zm-34-11c31 1 46-15 46-44 0-28-17-43-47-42-29 0-46 13-45 42 1 28 16 44 46 44zm1 122c35 0 51-18 51-52 0-30-18-46-53-46-33 0-51 17-51 47 0 34 19 51 53 51" id="d"/><path fill="#fff" d="M33 0v-38h34V0H33" id="e"/><path fill="#fff" d="M101-251c68 0 85 55 85 127S166 4 100 4C33 4 14-52 14-124c0-73 17-127 87-127zm-1 229c47 0 54-49 54-102s-4-102-53-102c-51 0-55 48-55 102 0 53 5 102 54 102" id="f"/><path fill="#fff" d="M210-169c-67 3-38 105-44 169h-31v-121c0-29-5-50-35-48C34-165 62-65 56 0H25l-1-190h30c1 10-1 24 2 32 10-44 99-50 107 0 11-21 27-35 58-36 85-2 47 119 55 194h-31v-121c0-29-5-49-35-48" id="g"/><g id="a"><use transform="matrix(0.05,0,0,0.05,0,0)" xlink:href="#d"/><use transform="matrix(0.05,0,0,0.05,10,0)" xlink:href="#e"/><use transform="matrix(0.05,0,0,0.05,15,0)" xlink:href="#f"/><use transform="matrix(0.05,0,0,0.05,25,0)" xlink:href="#f"/><use transform="matrix(0.05,0,0,0.05,35,0)" xlink:href="#g"/></g><path d="M134-131c28 9 52 24 51 62-1 50-34 73-85 73S17-19 16-69c0-36 21-54 49-61-75-25-45-126 34-121 46 3 78 18 79 63 0 33-17 51-44 57zm-34-11c31 1 46-15 46-44 0-28-17-43-47-42-29 0-46 13-45 42 1 28 16 44 46 44zm1 122c35 0 51-18 51-52 0-30-18-46-53-46-33 0-51 17-51 47 0 34 19 51 53 51" id="h"/><path d="M33 0v-38h34V0H33" id="i"/><path d="M101-251c68 0 85 55 85 127S166 4 100 4C33 4 14-52 14-124c0-73 17-127 87-127zm-1 229c47 0 54-49 54-102s-4-102-53-102c-51 0-55 48-55 102 0 53 5 102 54 102" id="j"/><path d="M210-169c-67 3-38 105-44 169h-31v-121c0-29-5-50-35-48C34-165 62-65 56 0H25l-1-190h30c1 10-1 24 2 32 10-44 99-50 107 0 11-21 27-35 58-36 85-2 47 119 55 194h-31v-121c0-29-5-49-35-48" id="k"/><g id="b"><use transform="matrix(0.05,0,0,0.05,0,0)" xlink:href="#h"/><use transform="matrix(0.05,0,0,0.05,10,0)" xlink:href="#i"/><use transform="matrix(0.05,0,0,0.05,15,0)" xlink:href="#j"/><use transform="matrix(0.05,0,0,0.05,25,0)" xlink:href="#j"/><use transform="matrix(0.05,0,0,0.05,35,0)" xlink:href="#k"/></g><path fill="#fff" d="M101-251c82-7 93 87 43 132L82-64C71-53 59-42 53-27h129V0H18c2-99 128-94 128-182 0-28-16-43-45-43s-46 15-49 41l-32-3c6-41 34-60 81-64" id="l"/><path fill="#fff" d="M54-142c48-35 137-8 131 61C196 18 31 33 14-55l32-4c7 23 22 37 52 37 35-1 51-22 54-58 4-55-73-65-99-34H22l8-134h141v27H59" id="m"/><g id="c"><use transform="matrix(0.05,0,0,0.05,0,0)" xlink:href="#d"/><use transform="matrix(0.05,0,0,0.05,10,0)" xlink:href="#e"/><use transform="matrix(0.05,0,0,0.05,15,0)" xlink:href="#l"/><use transform="matrix(0.05,0,0,0.05,25,0)" xlink:href="#m"/><use transform="matrix(0.05,0,0,0.05,35,0)" xlink:href="#g"/></g></defs></g></svg>