<svg xmlns="http://www.w3.org/2000/svg" xmlns:xlink="http://www.w3.org/1999/xlink" xmlns:lucid="lucid" width="813.47" height="812.2"><g transform="translate(0 0)" lucid:page-tab-id="vNCmn53UiidQ"><path d="M0 0h813.47v812.2H0z" fill="#fff"/><path d="M245.97 500.5l552.5.5" stroke="#000" stroke-width="5" fill="none"/><path d="M549.72 501.5h200v60h-200z" stroke="#000" stroke-width="2" fill="#999"/><path d="M554.72 564h90m-90 2.5h90M654.72 564h90m-90 2.5h90" stroke="#000" fill="#999"/><path d="M12.5 12.5L6.25 6.25 0 0v220h12.5zm0 297.5H0v502.2l6.25-6.25 6.25-6.25z" fill="#fff"/><path d="M12.5 12.5V220H0V0m12.5 310v489.7M0 812.2V310h12.5" stroke="#000" stroke-width="2" fill="none"/><use xlink:href="#a" transform="matrix(6.123233995736766e-17,1,-1,6.123233995736766e-17,-10,376.09813068987523) translate(5.024999999999999 14.4)"/><path d="M12.5 799.7l-6.25 6.25L0 812.2h812.22l-6.25-6.25-6.25-6.25z" fill="#fff"/><path d="M12.5 799.7h787.22m12.5 12.5H0m12.5-12.5" stroke="#000" stroke-width="2" fill="none"/><use xlink:href="#a" transform="matrix(1,1.9902056591417852e-15,-1.9902056591417852e-15,1,376.1121249999257,822.196261379751) translate(5.024999999999999 14.4)"/><path d="M799.72 799.7l6.25 6.25 6.25 6.25V620h-12.5zm0-254.7h12.5v-70h-12.5zm0-145h12.5v-75h-12.5zm0-150h12.5v-75h-12.5zm0-150h12.5V0l-6.25 6.25-6.25 6.25z" fill="#fff"/><path d="M799.72 799.7V620h12.5v192.2M799.72 545v-70h12.5v70h-12.5zm0-145v-75h12.5v75h-12.5zm0-150v-75h12.5v75h-12.5zm0-150V12.5M812.22 0v100h-12.5" stroke="#000" stroke-width="2" fill="none"/><use xlink:href="#a" transform="matrix(1.1714553645825241e-15,-1,1,1.1714553645825241e-15,822.224249999852,436.09813068987614) translate(5.024999999999999 14.4)"/><path d="M799.72 12.5l6.25-6.25L812.22 0H0l6.25 6.25 6.25 6.25z" fill="#fff"/><path d="M799.72 12.5H12.5M0 0h812.22m-12.5 12.5" stroke="#000" stroke-width="2" fill="none"/><use xlink:href="#a" transform="matrix(1,0,0,1,376.1121249999262,-25.999999999999776) translate(5.024999999999999 14.4)"/><g fill="none"><path d="M6.25 220l63.64 63.64M6.24 310c24.85 0 46.07-8.8 63.64-26.36" stroke="#000" stroke-width="2"/><path d="M96.25 220v90h-90v-90z"/></g><path d="M25.97 620h80v20h-80zM25.97 640h80v20h-80zM25.97 660h80v20h-80zM25.97 680h80v20h-80zM25.97 700h80v20h-80zM25.97 720h80v20h-80zM25.97 740h80v20h-80zM25.97 760h80v20h-80z" stroke="#000" stroke-width="2" fill="#fff"/><g stroke="#000" stroke-width="2"><path d="M798.47 175v-75h15v75z" fill="#fff"/><path d="M803.47 175h5v-75h-5z"/></g><g stroke="#000" stroke-width="2"><path d="M798.47 325v-75h15v75z" fill="#fff"/><path d="M803.47 325h5v-75h-5z"/></g><g stroke="#000" stroke-width="2"><path d="M798.47 475v-75h15v75z" fill="#fff"/><path d="M803.47 475h5v-75h-5z"/></g><g stroke="#000" stroke-width="2"><path d="M798.47 620v-75h15v75z" fill="#fff"/><path d="M803.47 620h5v-75h-5z"/></g><path d="M306.1 501.5h200v60h-200z" stroke="#000" stroke-width="2" fill="#999"/><path d="M311.1 564h90m-90 2.5h90M411.1 564h90m-90 2.5h90" stroke="#000" fill="#999"/><path d="M622.52 480.6h-200.6v-26.44h200.6v26.43z"/><path d="M627 487.06h-67.8c-.64 0-1.28-.6-1.28-1.4V473.6c0-.8.64-1.4 1.28-1.4H627c.62 0 1.05.6 1.05 1.4v12.06c0 .8-.43 1.4-1.06 1.4zM556.22 487.06h-68c-.63 0-1.06-.6-1.06-1.4V473.6c0-.8.43-1.4 1.06-1.4h68c.64 0 1.07.6 1.07 1.4v12.06c0 .8-.44 1.4-1.08 1.4zM485.25 487.06h-67.8c-.63 0-1.05-.6-1.05-1.4V473.6c0-.8.42-1.4 1.06-1.4h67.8c.63 0 1.26.6 1.26 1.4v12.06c0 .8-.63 1.4-1.27 1.4zM426.17 471.3v-40.15c0-3.15-1.06-5.78-2.55-5.78h-4.46c-1.5 0-2.76 2.63-2.76 5.78v40.16h9.77zM481.85 471.3H431.5c-2.56 0-4.48-2.53-4.48-5.6v-59.66c0-3.07 1.92-5.6 4.47-5.6h50.35c2.55 0 4.67 2.53 4.67 5.6v59.67c0 3.07-2.12 5.6-4.67 5.6zM628.05 471.3v-40.15c0-3.15-1.06-5.78-2.55-5.78h-4.46c-1.5 0-2.77 2.63-2.77 5.78v40.16h9.78zM612.96 471.3H562.6c-2.55 0-4.68-2.53-4.68-5.6v-59.66c0-3.07 2.13-5.6 4.68-5.6h50.36c2.55 0 4.46 2.53 4.46 5.6v59.67c0 3.07-1.9 5.6-4.46 5.6zM553.25 471.3H491.2c-2.13 0-4.04-2.26-4.04-4.98v-60.9c0-2.7 1.9-4.98 4.04-4.98h62.05c2.12 0 4.04 2.27 4.04 4.98v60.9c0 2.72-1.93 5-4.05 5z" stroke="#000" stroke-width="2" fill="#bbb"/><path d="M96.24 28.05H240.7v22.92H96.24V28.05z"/><path d="M92.68 20.44h74.1c.76 0 1.38.6 1.38 1.4V33.9c0 .8-.62 1.4-1.4 1.4H92.7c-.78 0-1.24-.6-1.24-1.4V21.85c0-.8.46-1.4 1.24-1.4zM170.18 20.44h74.1c.76 0 1.38.6 1.38 1.4V33.9c0 .8-.62 1.4-1.4 1.4H170.2c-.78 0-1.4-.6-1.4-1.4V21.85c0-.8.62-1.4 1.4-1.4zM91.44 36.2v40.15c0 3.15 1.24 5.78 2.94 5.78h4.8c1.7 0 3.1-2.63 3.1-5.78V36.2H91.45zM234.8 36.2v40.15c0 3.15 1.25 5.78 2.96 5.78h4.8c1.7 0 2.95-2.63 2.95-5.78V36.2h-10.84zM108.02 36.2h55.03c2.8 0 5.1 2.52 5.1 5.6v59.66c0 3.06-2.3 5.6-5.1 5.6h-55.03c-2.8 0-5.1-2.54-5.1-5.6V41.8c0-3.08 2.3-5.6 5.1-5.6zM173.9 36.2h55.02c2.8 0 5.12 2.52 5.12 5.6v59.66c0 3.06-2.33 5.6-5.12 5.6H173.9c-2.8 0-5.12-2.54-5.12-5.6V41.8c0-3.08 2.33-5.6 5.12-5.6z" stroke="#000" stroke-width="2" fill="#bbb"/><path d="M567.77 28.05h144.46v22.92H567.77V28.05z"/><path d="M564.2 20.44h74.1c.77 0 1.4.6 1.4 1.4V33.9c0 .8-.63 1.4-1.4 1.4h-74.1c-.77 0-1.24-.6-1.24-1.4V21.85c0-.8.47-1.4 1.25-1.4zM641.7 20.44h74.1c.77 0 1.4.6 1.4 1.4V33.9c0 .8-.63 1.4-1.4 1.4h-74.1c-.77 0-1.4-.6-1.4-1.4V21.85c0-.8.63-1.4 1.4-1.4zM562.97 36.2v40.15c0 3.15 1.24 5.78 2.94 5.78h4.82c1.7 0 3.1-2.63 3.1-5.78V36.2h-10.86zM706.34 36.2v40.15c0 3.15 1.24 5.78 2.94 5.78h4.8c1.7 0 2.95-2.63 2.95-5.78V36.2h-10.85zM579.55 36.2h55.03c2.78 0 5.1 2.52 5.1 5.6v59.66c0 3.06-2.3 5.6-5.1 5.6h-55.03c-2.8 0-5.12-2.54-5.12-5.6V41.8c0-3.08 2.33-5.6 5.12-5.6zM645.42 36.2h55.03c2.8 0 5.12 2.52 5.12 5.6v59.66c0 3.06-2.33 5.6-5.12 5.6h-55.03c-2.78 0-5.1-2.54-5.1-5.6V41.8c0-3.08 2.3-5.6 5.1-5.6z" stroke="#000" stroke-width="2" fill="#bbb"/><defs><path fill-opacity="0" d="M134-131c28 9 52 24 51 62-1 50-34 73-85 73S17-19 16-69c0-36 21-54 49-61-75-25-45-126 34-121 46 3 78 18 79 63 0 33-17 51-44 57zm-34-11c31 1 46-15 46-44 0-28-17-43-47-42-29 0-46 13-45 42 1 28 16 44 46 44zm1 122c35 0 51-18 51-52 0-30-18-46-53-46-33 0-51 17-51 47 0 34 19 51 53 51" id="b"/><path fill-opacity="0" d="M33 0v-38h34V0H33" id="c"/><path fill-opacity="0" d="M101-251c82-7 93 87 43 132L82-64C71-53 59-42 53-27h129V0H18c2-99 128-94 128-182 0-28-16-43-45-43s-46 15-49 41l-32-3c6-41 34-60 81-64" id="d"/><path fill-opacity="0" d="M54-142c48-35 137-8 131 61C196 18 31 33 14-55l32-4c7 23 22 37 52 37 35-1 51-22 54-58 4-55-73-65-99-34H22l8-134h141v27H59" id="e"/><path fill-opacity="0" d="M210-169c-67 3-38 105-44 169h-31v-121c0-29-5-50-35-48C34-165 62-65 56 0H25l-1-190h30c1 10-1 24 2 32 10-44 99-50 107 0 11-21 27-35 58-36 85-2 47 119 55 194h-31v-121c0-29-5-49-35-48" id="f"/><g id="a"><use transform="matrix(0.05,0,0,0.05,0,0)" xlink:href="#b"/><use transform="matrix(0.05,0,0,0.05,10,0)" xlink:href="#c"/><use transform="matrix(0.05,0,0,0.05,15,0)" xlink:href="#d"/><use transform="matrix(0.05,0,0,0.05,25,0)" xlink:href="#e"/><use transform="matrix(0.05,0,0,0.05,35,0)" xlink:href="#f"/></g></defs></g></svg>