<svg xmlns="http://www.w3.org/2000/svg" xmlns:xlink="http://www.w3.org/1999/xlink" xmlns:lucid="lucid" width="813.47" height="813.45"><g transform="translate(0 0)" lucid:page-tab-id="EQCmfLSfC5UJ"><path d="M0 0h813.47v813.45H0z" fill="#fff"/><g stroke="#000"><path d="M810 13.75v150h-60v-50l-40-40h-50v-60z" stroke-width="2" fill="#999"/><path d="M747.5 118.75v40m-2.5-40v40M705 76.25h-40m40 2.5h-40M747.5 111.25L700 98.75" fill="none"/></g><path d="M12.5 13.75h150v60h-50l-40 40v50h-60z" stroke="#000" stroke-width="2" fill="#999"/><path d="M117.5 76.25h40m-40 2.5h40M75 118.75v40m2.5-40v40M110 76.25l-12.5 47.5" stroke="#000" fill="none"/><path d="M267.27 511.25H340v270H140v-270h72.73" stroke="#000" stroke-width="5" fill="none"/><path d="M12.5 13.75L6.25 7.5 0 1.25v220h12.5zm0 297.5H0v502.2l6.25-6.25 6.25-6.25z" fill="#fff"/><path d="M12.5 13.75v207.5H0v-220m12.5 310v489.7M0 813.45v-502.2h12.5" stroke="#000" stroke-width="2" fill="none"/><use xlink:href="#a" transform="matrix(6.123233995736766e-17,1,-1,6.123233995736766e-17,-10,377.34813068987495) translate(5.024999999999999 14.4)"/><path d="M12.5 800.95l-6.25 6.25L0 813.45h812.22l-6.25-6.25-6.25-6.25z" fill="#fff"/><path d="M12.5 800.95h787.22m12.5 12.5H0m12.5-12.5" stroke="#000" stroke-width="2" fill="none"/><use xlink:href="#a" transform="matrix(1,1.9902056591417852e-15,-1.9902056591417852e-15,1,376.1121249999257,823.4462613797509) translate(5.024999999999999 14.4)"/><path d="M799.72 800.95l6.25 6.25 6.25 6.25v-192.2h-12.5zm0-254.7h12.5v-70h-12.5zm0-145h12.5v-75h-12.5zm0-150h12.5v-250l-6.25 6.25-6.25 6.25z" fill="#fff"/><path d="M799.72 800.95v-179.7h12.5v192.2m-12.5-267.2v-70h12.5v70h-12.5zm0-145v-75h12.5v75h-12.5zm0-150V13.75m12.5-12.5v250h-12.5" stroke="#000" stroke-width="2" fill="none"/><use xlink:href="#a" transform="matrix(1.1714553645825241e-15,-1,1,1.1714553645825241e-15,822.224249999852,437.3481306898759) translate(5.024999999999999 14.4)"/><path d="M799.72 13.75l6.25-6.25 6.25-6.25H435v12.5zm-439.72 0V1.25H0L6.25 7.5l6.25 6.25z" fill="#fff"/><path d="M799.72 13.75H435V1.25h377.22M360 13.75H12.5M0 1.25h360v12.5" stroke="#000" stroke-width="2" fill="none"/><use xlink:href="#a" transform="matrix(1,4.440892098500626e-16,-4.440892098500626e-16,1,376.1121249999262,-24.75) translate(5.024999999999999 14.4)"/><g fill="none"><path d="M6.25 221.25L69.9 284.9M6.24 311.24c24.85 0 46.07-8.8 63.64-26.36" stroke="#000" stroke-width="2"/><path d="M96.25 221.25v90h-90v-90z"/></g><path d="M25.97 621.25h80v20h-80zM25.97 641.25h80v20h-80zM25.97 661.25h80v20h-80zM25.97 681.25h80v20h-80zM25.97 701.25h80v20h-80zM25.97 721.25h80v20h-80zM25.97 741.25h80v20h-80zM25.97 761.25h80v20h-80z" stroke="#000" stroke-width="2" fill="#fff"/><g stroke="#000" stroke-width="2"><path d="M798.47 326.25v-75h15v75z" fill="#fff"/><path d="M803.47 326.25h5v-75h-5z"/></g><g stroke="#000" stroke-width="2"><path d="M798.47 476.25v-75h15v75z" fill="#fff"/><path d="M803.47 476.25h5v-75h-5z"/></g><g stroke="#000" stroke-width="2"><path d="M798.47 476.25v-75h15v75z" fill="#fff"/><path d="M803.47 476.25h5v-75h-5z"/></g><g stroke="#000" stroke-width="2"><path d="M798.47 621.25v-75h15v75z" fill="#fff"/><path d="M803.47 621.25h5v-75h-5z"/></g><g stroke="#000" stroke-width="2"><path d="M435 15h-75V0h75z" fill="#fff"/><path d="M435 10V5h-75v5z"/></g><path d="M297.2 28.16h200.6V54.6H297.2V28.15z"/><path d="M292.74 21.7h67.78c.64 0 1.28.6 1.28 1.4v12.06c0 .8-.64 1.4-1.28 1.4h-67.78c-.64 0-1.06-.6-1.06-1.4V23.1c0-.8.42-1.4 1.06-1.4zM363.5 21.7h68c.64 0 1.06.6 1.06 1.4v12.06c0 .8-.42 1.4-1.06 1.4h-68c-.64 0-1.06-.6-1.06-1.4V23.1c0-.8.42-1.4 1.06-1.4zM434.48 21.7h67.78c.64 0 1.06.6 1.06 1.4v12.06c0 .8-.42 1.4-1.06 1.4h-67.78c-.64 0-1.28-.6-1.28-1.4V23.1c0-.8.64-1.4 1.28-1.4zM493.55 37.44V77.6c0 3.15 1.06 5.77 2.55 5.77h4.46c1.5 0 2.76-2.62 2.76-5.77V37.44h-9.77zM437.88 37.44h50.36c2.55 0 4.46 2.53 4.46 5.6v59.67c0 3.07-1.9 5.6-4.46 5.6h-50.37c-2.54 0-4.67-2.53-4.67-5.6V43.05c0-3.07 2.13-5.6 4.68-5.6zM291.68 37.44V77.6c0 3.15 1.06 5.77 2.55 5.77h4.46c1.48 0 2.75-2.62 2.75-5.77V37.44h-9.77zM306.76 37.44h50.37c2.55 0 4.67 2.53 4.67 5.6v59.67c0 3.07-2.13 5.6-4.68 5.6h-50.36c-2.55 0-4.46-2.53-4.46-5.6V43.05c0-3.07 1.9-5.6 4.46-5.6zM366.48 37.44h62.04c2.13 0 4.04 2.27 4.04 4.98v60.9c0 2.72-1.9 5-4.04 5h-62.04c-2.13 0-4.04-2.28-4.04-5v-60.9c0-2.7 1.9-4.98 4.04-4.98z" stroke="#000" stroke-width="2" fill="#bbb"/><g><path d="M467.27 511.25H540v270H340v-270h72.73" stroke="#000" stroke-width="5" fill="none"/></g><g><path d="M667.27 511.25H740v270H540v-270h72.73" stroke="#000" stroke-width="5" fill="none"/></g><defs><path fill-opacity="0" d="M134-131c28 9 52 24 51 62-1 50-34 73-85 73S17-19 16-69c0-36 21-54 49-61-75-25-45-126 34-121 46 3 78 18 79 63 0 33-17 51-44 57zm-34-11c31 1 46-15 46-44 0-28-17-43-47-42-29 0-46 13-45 42 1 28 16 44 46 44zm1 122c35 0 51-18 51-52 0-30-18-46-53-46-33 0-51 17-51 47 0 34 19 51 53 51" id="b"/><path fill-opacity="0" d="M33 0v-38h34V0H33" id="c"/><path fill-opacity="0" d="M101-251c82-7 93 87 43 132L82-64C71-53 59-42 53-27h129V0H18c2-99 128-94 128-182 0-28-16-43-45-43s-46 15-49 41l-32-3c6-41 34-60 81-64" id="d"/><path fill-opacity="0" d="M54-142c48-35 137-8 131 61C196 18 31 33 14-55l32-4c7 23 22 37 52 37 35-1 51-22 54-58 4-55-73-65-99-34H22l8-134h141v27H59" id="e"/><path fill-opacity="0" d="M210-169c-67 3-38 105-44 169h-31v-121c0-29-5-50-35-48C34-165 62-65 56 0H25l-1-190h30c1 10-1 24 2 32 10-44 99-50 107 0 11-21 27-35 58-36 85-2 47 119 55 194h-31v-121c0-29-5-49-35-48" id="f"/><g id="a"><use transform="matrix(0.05,0,0,0.05,0,0)" xlink:href="#b"/><use transform="matrix(0.05,0,0,0.05,10,0)" xlink:href="#c"/><use transform="matrix(0.05,0,0,0.05,15,0)" xlink:href="#d"/><use transform="matrix(0.05,0,0,0.05,25,0)" xlink:href="#e"/><use transform="matrix(0.05,0,0,0.05,35,0)" xlink:href="#f"/></g></defs></g></svg>